<?xml version="1.0" encoding="utf-8"?>
<!-- Generator: Adobe Illustrator 15.1.0, SVG Export Plug-In . SVG Version: 6.00 Build 0)  -->
<!DOCTYPE svg PUBLIC "-//W3C//DTD SVG 1.1//EN" "http://www.w3.org/Graphics/SVG/1.1/DTD/svg11.dtd">
<svg version="1.1" id="Layer_1" xmlns="http://www.w3.org/2000/svg" xmlns:xlink="http://www.w3.org/1999/xlink" x="0px" y="0px"
	 width="70px" height="40px" viewBox="0 0 70 40" enable-background="new 0 0 70 40" xml:space="preserve">
<g>
	<g>
		<path fill="#FFFFFF" d="M0,8.76c0.682,0.3,1.4,0.505,2.16,0.589c3.77,0.417,7.194-2.23,7.62-5.912C9.92,2.217,9.73,1.111,9.257,0
			H0V8.76z M20.227,12.714c-0.454-0.06-0.573-0.106-0.845-0.136c-3.77-0.411-7.201,2.268-7.622,5.954
			c-0.056,0.492-0.08,1.024-0.028,1.468h8.495V12.714z"/>
		<path fill="#FFFFFF" d="M6.957,18.768l2.781-0.736c0.043-0.29,0.1-0.58,0.171-0.861l-2.326-1.739l0.564-1.216l2.845,0.442
			c0.159-0.25,0.33-0.49,0.512-0.72l-1.401-2.508l1.018-0.887l2.403,1.527c0.25-0.17,0.51-0.326,0.778-0.47l-0.234-2.832l1.3-0.41
			l1.538,2.306c0.31-0.058,0.625-0.126,0.944-0.152l1.002-2.687l1.375,0.144V0h-6.174l0.165,0.774l-2.366,1.168
			c0.03,0.354,0.039,0.71,0.025,1.07l2.429,1.128l-0.295,1.301l-2.636,0.131c-0.123,0.34-0.268,0.672-0.433,0.994l1.745,1.995
			l-0.81,1.074L9.403,8.699c-0.254,0.259-0.522,0.5-0.807,0.725l0.771,2.534l-1.185,0.659l-1.89-1.857
			c-0.328,0.129-0.668,0.241-1.015,0.333l-0.354,2.649l-1.358,0.13l-0.968-2.488c-0.344-0.013-0.687-0.046-1.027-0.1l-1.474,2.319
			L0,13.58V20h6.947L6.957,18.768z M34.76,12.636l-2.246-7.992l-2.355,7.992H34.76L34.76,12.636z M30.43,0.622
			c1.083-0.162,2.182-0.202,3.275-0.12c0.342,0.028,0.721,0.067,1.136,0.12l6.091,19.027c-0.74,0.106-1.463,0.158-2.166,0.158
			c-0.686,0-1.354-0.052-2.002-0.158l-1.084-3.81H29.24l-1.11,3.81c-0.65,0.106-1.273,0.158-1.868,0.158
			c-0.668,0-1.326-0.052-1.976-0.158L30.43,0.622z M43.708,0.622c0.636-0.104,1.277-0.157,1.921-0.159
			c0.631,0,1.29,0.053,1.977,0.159v15.693h6.738c0.055,0.3,0.09,0.586,0.108,0.86c0.036,0.538,0.036,1.077,0,1.614
			c-0.019,0.273-0.054,0.56-0.108,0.86H43.708V0.622z M61.436,10.837c-0.613-0.23-1.164-0.48-1.651-0.755
			c-0.466-0.256-0.886-0.587-1.245-0.979c-0.354-0.397-0.625-0.86-0.798-1.363c-0.19-0.529-0.285-1.164-0.285-1.905
			c0-0.9,0.157-1.693,0.474-2.382c0.306-0.674,0.765-1.268,1.34-1.733c0.578-0.467,1.272-0.82,2.084-1.058
			c0.813-0.239,1.724-0.357,2.733-0.357c0.92,0,1.782,0.079,2.585,0.238s1.646,0.388,2.53,0.688
			c-0.115,1.047-0.408,2.067-0.866,3.016c-0.27-0.105-0.545-0.211-0.824-0.317c-0.292-0.109-0.59-0.198-0.894-0.265
			c-0.315-0.07-0.673-0.128-1.069-0.172c-0.449-0.047-0.9-0.069-1.354-0.066c-0.313,0-0.625,0.027-0.934,0.08
			c-0.316,0.052-0.6,0.15-0.852,0.29c-0.254,0.142-0.46,0.35-0.623,0.622c-0.162,0.274-0.244,0.631-0.244,1.072
			c0,0.353,0.063,0.648,0.189,0.887c0.127,0.238,0.299,0.441,0.515,0.609c0.216,0.167,0.46,0.308,0.729,0.423
			c0.271,0.115,0.543,0.225,0.813,0.33l1.624,0.61c0.686,0.264,1.307,0.537,1.867,0.82c0.559,0.282,1.033,0.63,1.421,1.045
			c0.388,0.414,0.69,0.917,0.907,1.508c0.216,0.591,0.324,1.32,0.324,2.183c0,0.9-0.168,1.72-0.5,2.461
			c-0.332,0.737-0.826,1.389-1.449,1.906c-0.631,0.529-1.412,0.944-2.34,1.244c-0.931,0.3-2,0.45-3.209,0.45
			c-0.595,0-1.127-0.018-1.596-0.054c-0.881-0.064-1.752-0.224-2.599-0.476c-0.439-0.132-0.872-0.282-1.3-0.45
			c0.056-0.511,0.154-1.045,0.299-1.6c0.144-0.557,0.316-1.116,0.514-1.681c0.758,0.3,1.471,0.525,2.139,0.675
			c0.666,0.15,1.379,0.224,2.139,0.224c1.136,0,2.029-0.207,2.68-0.621c0.648-0.415,0.973-1.046,0.973-1.893
			c0-0.423-0.076-0.776-0.229-1.058c-0.148-0.276-0.351-0.519-0.595-0.714c-0.252-0.199-0.529-0.364-0.825-0.49
			c-0.308-0.132-0.623-0.26-0.948-0.384L61.436,10.837L61.436,10.837z"/>
	</g>
	<g>
		<path fill="#830051" d="M0,28.76c0.682,0.301,1.4,0.506,2.16,0.59c3.77,0.416,7.194-2.23,7.62-5.912
			C9.92,22.217,9.73,21.111,9.257,20H0V28.76z M20.227,32.714c-0.454-0.06-0.573-0.106-0.845-0.136
			c-3.77-0.411-7.201,2.268-7.622,5.953c-0.056,0.492-0.08,1.025-0.028,1.469h8.495V32.714z"/>
		<path fill="#830051" d="M6.957,38.768l2.781-0.735c0.043-0.29,0.1-0.58,0.171-0.861l-2.326-1.739l0.564-1.216l2.845,0.442
			c0.159-0.25,0.33-0.49,0.512-0.721l-1.401-2.508l1.018-0.887l2.403,1.527c0.25-0.17,0.51-0.326,0.778-0.471l-0.234-2.832l1.3-0.41
			l1.538,2.307c0.31-0.059,0.625-0.126,0.944-0.152l1.002-2.687l1.375,0.144V20h-6.174l0.165,0.773l-2.366,1.168
			c0.03,0.354,0.039,0.711,0.025,1.07l2.429,1.129l-0.295,1.301l-2.636,0.131c-0.123,0.34-0.268,0.672-0.433,0.994l1.745,1.994
			l-0.81,1.074l-2.474-0.936c-0.254,0.259-0.522,0.5-0.807,0.725l0.771,2.534l-1.185,0.659l-1.89-1.857
			c-0.328,0.129-0.668,0.241-1.015,0.333l-0.354,2.649l-1.358,0.13l-0.968-2.488c-0.344-0.013-0.687-0.046-1.027-0.1l-1.474,2.319
			L0,33.58V40h6.947L6.957,38.768z M34.76,32.637l-2.246-7.992l-2.355,7.992H34.76L34.76,32.637z M30.43,20.622
			c1.083-0.162,2.182-0.202,3.275-0.12c0.342,0.027,0.721,0.066,1.136,0.12l6.091,19.026c-0.74,0.106-1.463,0.158-2.166,0.158
			c-0.686,0-1.354-0.052-2.002-0.158l-1.084-3.81H29.24l-1.11,3.81c-0.65,0.106-1.273,0.158-1.868,0.158
			c-0.668,0-1.326-0.052-1.976-0.158L30.43,20.622z M43.708,20.622c0.636-0.104,1.277-0.157,1.921-0.159
			c0.631,0,1.29,0.053,1.977,0.159v15.692h6.738c0.055,0.301,0.09,0.586,0.108,0.86c0.036,0.538,0.036,1.077,0,1.614
			c-0.019,0.273-0.054,0.561-0.108,0.859H43.708V20.622z M61.436,30.837c-0.613-0.229-1.164-0.479-1.651-0.755
			c-0.466-0.256-0.886-0.587-1.245-0.979c-0.354-0.397-0.625-0.861-0.798-1.363c-0.19-0.529-0.285-1.164-0.285-1.905
			c0-0.899,0.157-1.692,0.474-2.382c0.306-0.674,0.765-1.268,1.34-1.732c0.578-0.468,1.272-0.82,2.084-1.059
			c0.813-0.239,1.724-0.357,2.733-0.357c0.92,0,1.782,0.079,2.585,0.238s1.646,0.389,2.53,0.688
			c-0.115,1.048-0.408,2.068-0.866,3.017c-0.27-0.104-0.545-0.211-0.824-0.317c-0.292-0.109-0.59-0.197-0.894-0.265
			c-0.315-0.069-0.673-0.128-1.069-0.172c-0.449-0.047-0.9-0.069-1.354-0.065c-0.313,0-0.625,0.027-0.934,0.079
			c-0.316,0.052-0.6,0.15-0.852,0.29c-0.254,0.143-0.46,0.35-0.623,0.622c-0.162,0.274-0.244,0.631-0.244,1.072
			c0,0.353,0.063,0.647,0.189,0.887c0.127,0.238,0.299,0.44,0.515,0.608s0.46,0.309,0.729,0.424c0.271,0.115,0.543,0.225,0.813,0.33
			l1.624,0.609c0.686,0.264,1.307,0.537,1.867,0.82c0.559,0.282,1.033,0.63,1.421,1.045c0.388,0.414,0.69,0.917,0.907,1.508
			c0.216,0.592,0.324,1.32,0.324,2.184c0,0.9-0.168,1.72-0.5,2.461c-0.332,0.737-0.826,1.389-1.449,1.906
			c-0.631,0.529-1.412,0.943-2.34,1.244c-0.931,0.299-2,0.449-3.209,0.449c-0.595,0-1.127-0.018-1.596-0.054
			c-0.881-0.064-1.752-0.224-2.599-0.476c-0.439-0.133-0.872-0.282-1.3-0.451c0.056-0.51,0.154-1.045,0.299-1.6
			c0.144-0.557,0.316-1.115,0.514-1.681c0.758,0.3,1.471,0.524,2.139,0.675c0.666,0.15,1.379,0.225,2.139,0.225
			c1.136,0,2.029-0.207,2.68-0.621c0.648-0.416,0.973-1.047,0.973-1.894c0-0.423-0.076-0.776-0.229-1.058
			c-0.148-0.275-0.351-0.519-0.595-0.715c-0.252-0.198-0.529-0.363-0.825-0.489c-0.308-0.132-0.623-0.261-0.948-0.384L61.436,30.837
			L61.436,30.837z"/>
	</g>
</g>
</svg>
